<svg version="1.1" xmlns="http://www.w3.org/2000/svg" xmlns:xlink="http://www.w3.org/1999/xlink" width="57.88329" height="68.68951" viewBox="0,0,57.88329,68.68951"><g transform="translate(-211.31799,-147.13853)"><g data-paper-data="{&quot;isPaintingLayer&quot;:true}" fill-rule="nonzero" stroke="none" stroke-linecap="butt" stroke-linejoin="miter" stroke-miterlimit="10" stroke-dasharray="" stroke-dashoffset="0" style="mix-blend-mode: normal"><path d="M211.31799,215.82805v-68.68951h57.88329v68.68951z" fill="#000000" stroke-width="0"/><path d="M238.90038,201.01504c-0.28313,0.67427 -0.90339,1.41284 -2.26223,1.41284c-2.5,0 -2.5,-2.5 -2.5,-2.5l0.69366,-1.89487c4.60045,-4.8026 9.56871,-9.2222 13.92204,-14.24551c-0.36633,-0.00507 -0.66705,-0.01076 -0.87156,-0.01076c-6.98024,0 -13.82199,0.50002 -20.5929,-1.42834c0,0 -2.40387,-0.68659 -1.71729,-3.09046c0.68659,-2.40387 3.09046,-1.71729 3.09046,-1.71729c5.19068,1.4871 10.19193,1.23609 15.55496,1.23609c1.25891,0 2.55796,-0.23298 3.83056,-0.31244c-0.59268,-0.44578 -1.17105,-0.91339 -1.76231,-1.35907c-2.95144,-2.22476 -5.60185,-4.74403 -8.73053,-6.70189l-0.64614,-0.49639c0,0 -1.95244,-1.5614 -0.39104,-3.51384c1.5614,-1.95244 3.51384,-0.39104 3.51384,-0.39104l0.18681,0.16973c3.24774,2.05465 6.04167,4.61263 9.09348,6.95338c1.38032,1.05871 3.17867,1.70938 4.16851,3.1399c1.26355,1.82607 3.00852,4.13073 2.32416,6.24326c-0.05414,0.16713 -0.17318,0.31292 -0.34419,0.44004c-0.13448,0.6961 -0.52716,1.19906 -0.52716,1.19906c-4.81046,6.15334 -10.6358,11.27485 -16.03316,16.86759z" fill="#9966ff" stroke-width="0.5"/></g></g></svg>