<svg version="1.1" xmlns="http://www.w3.org/2000/svg" xmlns:xlink="http://www.w3.org/1999/xlink" width="74.94827" height="62.93484" viewBox="0,0,74.94827,62.93484"><g transform="translate(-201.40915,-143.32977)"><g data-paper-data="{&quot;isPaintingLayer&quot;:true}" fill-rule="nonzero" stroke="none" stroke-linecap="butt" stroke-linejoin="miter" stroke-miterlimit="10" stroke-dasharray="" stroke-dashoffset="0" style="mix-blend-mode: normal"><path d="M201.40915,206.26462v-62.93484h74.94827v62.93484z" fill="#000000" stroke-width="0"/><path d="M245.24586,191.15236c-0.27576,0.68409 -0.89357,1.45038 -2.27767,1.45038c-2.5,0 -2.5,-2.5 -2.5,-2.5l0.66043,-1.85947c4.71485,-5.12255 9.3175,-10.34803 14.18491,-15.33024c-0.56852,-0.0049 -1.13477,-0.01894 -1.63142,0.03921c-2.11984,0.24821 -4.27375,0.03716 -6.3985,0.23898c-9.93035,0.94324 -19.56893,3.83014 -29.49214,5.0708c0,0 -2.48071,0.31 -2.79071,-2.17071c-0.31,-2.48071 2.17071,-2.79071 2.17071,-2.79071c7.86819,-0.98277 15.30017,-2.6807 23.06911,-4.21948c3.21746,-0.63728 6.67779,-1.08663 9.9599,-1.21009c0.76802,-0.02889 1.55305,-0.11383 2.32232,-0.08625c-0.27171,-0.40599 -0.52734,-0.8207 -0.75446,-1.11119c-2.10585,-2.69339 -4.34438,-5.22377 -6.3365,-8.00662l-0.21243,-0.31616c0,0 -1.38716,-2.07985 0.69269,-3.46701c2.07985,-1.38716 3.46701,0.69269 3.46701,0.69269l0.12076,0.18341c1.95356,2.73885 4.19884,5.1882 6.23137,7.86486c0.63123,0.83127 1.54876,1.51976 1.86705,2.51382c0.4447,1.38888 1.21145,2.99663 1.16227,4.42596c0.50652,0.01661 1.07038,0.22084 1.63419,0.78483c1.76749,1.76805 -0.00056,3.53553 -0.00056,3.53553c-5.24516,5.24192 -10.13855,10.80849 -15.14832,16.26743z" fill="#ba00ff" stroke-width="0.5"/></g></g></svg>