<svg version="1.1" xmlns="http://www.w3.org/2000/svg" xmlns:xlink="http://www.w3.org/1999/xlink" width="61.6901" height="41.24341" viewBox="0,0,61.6901,41.24341"><g transform="translate(-186.67312,-158.14551)"><g data-paper-data="{&quot;isPaintingLayer&quot;:true}" fill-rule="nonzero" stroke="none" stroke-linecap="butt" stroke-linejoin="miter" stroke-miterlimit="10" stroke-dasharray="" stroke-dashoffset="0" style="mix-blend-mode: normal"><path d="M186.67312,199.38892v-41.24341h61.6901v41.24341z" fill="#000000" stroke-width="0"/><path d="M223.12413,180.19105c-0.07973,0.07033 -0.16801,0.13143 -0.26685,0.18111c-3.09981,1.55802 -15.69967,-1.82344 -19.74455,-2.07984c-2.09631,-0.13288 -7.77873,1.15918 -7.77873,-2.60588c0,-3.29282 4.11533,-2.50851 5.87386,-2.5c3.24112,0.01569 6.36983,0.49006 9.49859,1.02454c0.30459,-0.15468 0.62567,-0.28471 0.9601,-0.39267c2.99813,-0.96788 7.06898,-0.16211 9.94657,0.55759c2.24554,0.56162 4.47323,1.19427 6.72398,1.73467c0.35895,0.08618 1.26851,0.44342 1.10154,0.11419c-0.90994,-1.79417 -2.05294,-3.4042 -3.0637,-5.11719c-0.65514,-1.1103 -7.26875,-10.24404 -1.22189,-10.24418c2.12922,-0.00005 2.72581,2.86434 3.54782,4.29316c1.75262,3.04642 7.73664,9.67752 6.54182,13.93704c0.25691,0.39279 0.40627,0.86228 0.40627,1.36665c0,0.14215 -0.01186,0.28153 -0.03466,0.41721c-0.00337,0.34384 -0.15717,0.71918 -0.51875,1.15161c-0.04633,0.05742 -0.09515,0.11274 -0.1463,0.16581c-4.4522,4.80085 -8.30126,10.38722 -13.73127,14.04582c-1.67926,1.13145 -4.06237,-0.44034 -3.95751,-2.32428c0.09238,-1.65973 2.37004,-2.99525 3.32052,-3.98263c2.77032,-2.87785 5.49732,-5.79799 8.27608,-8.66753c-1.92425,-0.27245 -3.94898,-0.81104 -5.55473,-1.26347c-0.05449,0.06806 -0.11353,0.1312 -0.17821,0.18826z" fill="#ba00ff" stroke-width="0.5"/></g></g></svg>