<svg version="1.1" xmlns="http://www.w3.org/2000/svg" xmlns:xlink="http://www.w3.org/1999/xlink" width="81.95733" height="52.81987" viewBox="0,0,81.95733,52.81987"><g transform="translate(-171.24424,-158.67194)"><g data-paper-data="{&quot;isPaintingLayer&quot;:true}" fill-rule="nonzero" stroke="none" stroke-linecap="butt" stroke-linejoin="miter" stroke-miterlimit="10" stroke-dasharray="" stroke-dashoffset="0" style="mix-blend-mode: normal"><path d="M171.24424,211.49181v-52.81987h81.95733v52.81987z" fill="#050308" stroke-width="0"/><path d="M205.86486,194.56862c-1.46233,-2.02771 0.56538,-3.49003 0.56538,-3.49003l1.37211,-0.97853c3.03931,-1.82149 6.04241,-3.59088 9.00669,-5.46071c-5.33876,-0.06894 -11.30125,-2.26426 -16.22024,-3.41675c0,0 -2.43408,-0.5703 -1.86378,-3.00438c0.5703,-2.43408 3.00438,-1.86378 3.00438,-1.86378c3.39731,0.79599 6.81482,1.72036 10.24342,2.37973c1.0997,0.21149 2.24003,0.21305 3.37515,0.22689c-1.18458,-1.17866 -2.28324,-2.49413 -3.12513,-3.36293l-0.45726,-0.53778c0,0 -1.60073,-1.92033 0.3196,-3.52106c1.92033,-1.60073 3.52106,0.3196 3.52106,0.3196l0.20905,0.26156c1.63249,1.68816 5.60988,4.18432 6.73272,6.00318c0.55529,0.89951 1.30904,1.96001 1.6655,3.00728c0.34036,0.16811 0.67854,0.44953 0.98734,0.89404c1.42633,2.05319 -0.62686,3.47952 -0.62686,3.47952c-4.63504,3.21961 -9.37857,5.98906 -14.19974,8.8834l-1.01935,0.74613c0,0 -2.02771,1.46233 -3.49003,-0.56538z" fill="#9966ff" stroke-width="0.5"/></g></g></svg>